<svg width="16" height="16" viewBox="0 0 16 16" fill="none" xmlns="http://www.w3.org/2000/svg">
<g clip-path="url(#clip0_1_988)">
<path fill-rule="evenodd" clip-rule="evenodd" d="M0.666626 8C0.666626 3.94991 3.94987 0.666664 7.99996 0.666664C12.05 0.666664 15.3333 3.94991 15.3333 8C15.3333 12.0501 12.05 15.3333 7.99996 15.3333C3.94987 15.3333 0.666626 12.0501 0.666626 8Z" fill="#08AD36"/>
<path fill-rule="evenodd" clip-rule="evenodd" d="M11.5404 5.36195C11.8008 5.6223 11.8008 6.04441 11.5404 6.30476L7.40235 10.6381C7.142 10.8984 6.71989 10.8984 6.45954 10.6381L4.45954 8.6381C4.19919 8.37775 4.19919 7.95564 4.45954 7.69529C4.71989 7.43494 5.142 7.43494 5.40235 7.69529L6.93095 9.22388L10.5976 5.36195C10.858 5.1016 11.2801 5.1016 11.5404 5.36195Z" fill="white"/>
</g>
<defs>
<clipPath id="clip0_1_988">
<rect width="16" height="16" fill="white"/>
</clipPath>
</defs>
</svg>
