<svg width="10" height="10" viewBox="0 0 14 14" fill="none" xmlns="http://www.w3.org/2000/svg">
<path fill-rule="evenodd" clip-rule="evenodd" d="M9.91658 4.95833H10.4999C11.1416 4.95833 11.6666 5.48333 11.6666 6.125V11.9583C11.6666 12.6 11.1416 13.125 10.4999 13.125H3.49992C2.85825 13.125 2.33325 12.6 2.33325 11.9583V6.125C2.33325 5.48333 2.85825 4.95833 3.49992 4.95833H4.08325V3.79167C4.08325 2.18167 5.38992 0.875 6.99992 0.875C8.60992 0.875 9.91658 2.18167 9.91658 3.79167V4.95833ZM6.99992 2.04167C6.03159 2.04167 5.24992 2.82333 5.24992 3.79167V4.95833H8.74992V3.79167C8.74992 2.82333 7.96825 2.04167 6.99992 2.04167ZM3.49992 11.9583V6.125H10.4999V11.9583H3.49992ZM8.16658 9.04167C8.16658 9.68333 7.64158 10.2083 6.99992 10.2083C6.35825 10.2083 5.83325 9.68333 5.83325 9.04167C5.83325 8.4 6.35825 7.875 6.99992 7.875C7.64158 7.875 8.16658 8.4 8.16658 9.04167Z" fill="#8692A6"/>
</svg>
